<?xml version="1.0" standalone="no"?>
<!DOCTYPE svg PUBLIC "-//W3C//DTD SVG 20010904//EN"
 "http://www.w3.org/TR/2001/REC-SVG-20010904/DTD/svg10.dtd">
<svg version="1.0" xmlns="http://www.w3.org/2000/svg"
 width="577.000000pt" height="433.000000pt" viewBox="0 0 577.000000 433.000000"
 preserveAspectRatio="xMidYMid meet">

<g transform="translate(0.000000,433.000000) scale(0.100000,-0.100000)"
fill="#000000" stroke="none">
<path d="M3400 3644 c-103 -12 -241 -38 -337 -65 -59 -17 -148 -41 -198 -55
-155 -43 -461 -177 -565 -247 -59 -40 -169 -133 -193 -163 -10 -13 -31 -53
-47 -88 -51 -111 -34 -234 44 -332 37 -47 138 -125 292 -226 144 -95 231 -179
270 -263 29 -61 30 -94 5 -143 -60 -116 -198 -181 -491 -234 -253 -45 -616 -6
-644 69 -8 21 15 55 61 90 20 15 52 43 71 61 29 28 32 34 21 48 -17 20 -79 14
-170 -16 -87 -30 -153 -81 -178 -141 -27 -61 -26 -92 2 -154 20 -41 39 -61
113 -114 80 -57 163 -102 264 -144 177 -74 453 -167 494 -167 14 0 36 -4 49
-9 45 -17 370 -79 512 -97 214 -28 558 -26 730 5 151 27 347 93 437 147 90 55
205 175 248 260 31 63 35 77 35 154 0 75 -4 93 -31 150 -35 73 -155 222 -210
260 -19 14 -56 41 -82 61 -92 69 -146 102 -291 178 -167 88 -237 121 -406 187
-175 68 -392 162 -430 186 -11 7 -44 28 -75 47 -65 40 -140 104 -157 134 -37
66 20 129 190 211 103 51 264 112 273 104 1 -2 -29 -28 -69 -58 -85 -66 -121
-113 -106 -141 21 -41 241 -11 424 58 80 31 341 162 386 195 51 38 99 108 99
144 0 28 -7 38 -38 59 -21 14 -52 29 -69 34 -38 11 -185 20 -233 15z"/>
</g>
</svg>
