<?xml version="1.0" standalone="no"?>
<!DOCTYPE svg PUBLIC "-//W3C//DTD SVG 20010904//EN"
 "http://www.w3.org/TR/2001/REC-SVG-20010904/DTD/svg10.dtd">
<svg version="1.0" xmlns="http://www.w3.org/2000/svg"
 width="563.000000pt" height="443.000000pt" viewBox="0 0 563.000000 443.000000"
 preserveAspectRatio="xMidYMid meet">

<g transform="translate(0.000000,443.000000) scale(0.100000,-0.100000)"
fill="#000000" stroke="none">
<path d="M3277 3650 c-243 -28 -605 -138 -873 -266 -349 -166 -494 -381 -393
-582 35 -71 144 -178 235 -231 168 -99 312 -224 353 -307 32 -64 26 -140 -15
-190 -106 -132 -479 -228 -791 -204 -185 14 -278 43 -290 88 -6 26 2 35 111
128 22 19 36 40 36 54 0 22 -3 23 -64 18 -113 -9 -243 -85 -280 -162 -35 -73
-17 -144 55 -215 152 -150 621 -327 1101 -415 284 -52 633 -71 866 -46 296 32
526 129 668 282 144 155 164 328 56 493 -138 211 -455 411 -992 626 -316 126
-475 212 -554 299 -74 82 -35 142 152 235 70 34 272 108 279 102 2 -2 -23 -23
-56 -45 -102 -72 -151 -148 -105 -166 121 -46 624 137 806 294 57 49 84 100
68 130 -36 67 -189 100 -373 80z"/>
</g>
</svg>
