<?xml version="1.0" standalone="no"?>
<!DOCTYPE svg PUBLIC "-//W3C//DTD SVG 20010904//EN"
 "http://www.w3.org/TR/2001/REC-SVG-20010904/DTD/svg10.dtd">
<svg version="1.0" xmlns="http://www.w3.org/2000/svg"
 width="248.000000pt" height="249.000000pt" viewBox="0 0 248.000000 249.000000"
 preserveAspectRatio="xMidYMid meet">

<g transform="translate(0.000000,249.000000) scale(0.100000,-0.100000)"
fill="#000000" stroke="none">
<path d="M900 2279 c-168 -60 -345 -124 -395 -142 l-90 -33 -3 -179 c-2 -137
1 -197 13 -253 48 -214 204 -389 415 -463 60 -21 88 -23 336 -28 l270 -6 59
-30 c62 -32 105 -77 129 -136 l15 -36 -209 -187 c-116 -102 -216 -189 -224
-192 -10 -4 -94 65 -235 191 l-221 197 0 53 0 53 -42 17 c-65 26 -175 102
-234 163 -29 29 -58 51 -64 47 -6 -4 -10 -93 -10 -249 l0 -244 83 -73 c46 -41
222 -198 391 -349 170 -151 316 -275 325 -275 10 0 194 157 409 349 l392 350
0 70 c-1 288 -185 532 -463 613 -38 11 -127 17 -322 22 -250 6 -273 8 -310 28
-63 33 -121 103 -140 167 -31 105 -38 97 205 203 118 51 222 92 230 92 8 0
112 -42 230 -93 l215 -93 3 -109 3 -109 76 -40 c51 -26 106 -68 164 -122 47
-46 92 -83 98 -83 8 0 11 99 9 367 l-3 367 -385 138 c-212 76 -392 140 -400
142 -8 2 -152 -45 -320 -105z"/>
</g>
</svg>
